# AST/ASF file generated using VICON BodyLanguage
# -----------------------------------------------
:version 1.10
:name VICON
:units
  mass 1.0
  length 0.45
  angle deg
:documentation
   .ast/.asf automatically generated from VICON data using
   VICON BodyBuilder and BodyLanguage model FoxedUp or BRILLIANT.MOD
:root
   order TX TY TZ RX RY RZ
   axis XYZ
   position 0 0 0  
   orientation 0 0 0 
:bonedata
  begin
     id 1 
     name lhipjoint
     direction 0.662698 -0.695252 0.27831 
     length 2.53073 
     axis 0 0 0  XYZ
  end
  begin
     id 2 
     name lfemur
     direction 0.34202 -0.939693 0  
     length 7.16147  
     axis 0 0 20  XYZ
    dof rx ry rz
    limits (-160.0 20.0)
           (-70.0 70.0)
           (-60.0 70.0)
  end
  begin
     id 3 
     name ltibia
     direction 0.34202 -0.939693 0   
     length 7.63967   
     axis 0 0 20   XYZ
    dof rx
    limits (-10.0 170.0)
  end
  begin
     id 4 
     name lfoot
     direction 0.0938457 -0.257721 0.961651   
     length 1.89793   
     axis -90 7.62852e-016 20   XYZ
    dof rx rz
    limits (-45.0 90.0)
           (-70.0 20.0)
  end
  begin
     id 5 
     name ltoes
     direction -0.00116841 -0.0030592 0.999995   
     length 0.955649   
     axis -90 7.62852e-016 20   XYZ
    dof rx
    limits (-90.0 20.0)
  end
  begin
     id 6 
     name rhipjoint
     direction -0.649445 -0.705948 0.282592   
     length 2.49238  
     axis 0 0 0  XYZ 
  end
  begin
     id 7 
     name rfemur
     direction -0.34202 -0.939693 0   
     length 6.90728   
     axis 0 0 -20   XYZ
    dof rx ry rz
    limits (-160.0 20.0)
           (-70.0 70.0)
           (-70.0 60.0)
  end
  begin
     id 8 
     name rtibia
     direction -0.34202 -0.939693 0   
     length 7.72868   
     axis 0 0 -20   XYZ
    dof rx
    limits (-10.0 170.0)
 end
 begin
     id 9 
     name rfoot
     direction -0.0920068 -0.252865 0.963117   
     length 1.97476  
     axis -90 -7.62852e-016 -20   XYZ
    dof rx rz
    limits (-45.0 90.0)
           (-20.0 70.0)
  end
  begin
     id 10 
     name rtoes
     direction 0.000391322 0.00230649 0.999997   
     length 0.992641   
     axis -90 -7.62852e-016 -20   XYZ
    dof rx
    limits (-90.0 20.0)
  end
  begin
     id 11 
     name lowerback
     direction -0.00875327 0.998321 -0.0572635   
     length 2.20024   
     axis 0 0 0   XYZ
    dof rx ry rz
    limits (-20.0 45.0)
           (-30.0 30.0)
           (-30.0 30.0)
  end
  begin
     id 12 
     name upperback
     direction 0.00753931 0.999972 -0.000360425   
     length 2.20538   
     axis 0 0 0   XYZ
    dof rx ry rz
    limits (-20.0 45.0)
           (-30.0 30.0)
           (-30.0 30.0)
  end
  begin
     id 13 
     name thorax
     direction 0.0117767 0.999601 0.0256663   
     length 2.21508   
     axis 0 0 0   XYZ
    dof rx ry rz
    limits (-20.0 45.0)
           (-30.0 30.0)
           (-30.0 30.0)
  end
  begin
     id 14 
     name lowerneck
     direction 0.060228 0.994909 0.0807986   
     length 1.7607   
     axis 0 0 0   XYZ
    dof rx ry rz
    limits (-20.0 45.0)
           (-30.0 30.0)
           (-30.0 30.0)
  end
  begin
     id 15 
     name upperneck
     direction -0.0563647 0.959594 -0.275685   
     length 1.75612   
     axis 0 0 0   XYZ
    dof rx ry rz
    limits (-20.0 45.0)
           (-30.0 30.0)
           (-30.0 30.0)
  end
  begin
     id 16
     name head
     direction -0.0161544 0.99458 -0.102714  
     length 1.79288  
     axis 0 0 0   XYZ
    dof rx ry rz
    limits (-20.0 45.0)
           (-30.0 30.0)
           (-30.0 30.0)
  end
  begin
     id 17 
     name lclavicle
     direction 0.93913 0.332189 -0.087669  
     length 3.52087  
     axis 0 0 0   XYZ
    dof ry rz
    limits (-20.0 10.0)
           (0.0 20.0)
  end
  begin
     id 18 
     name lhumerus
     direction 1 -4.48974e-011 -2.70836e-027   
     length 5.35289   
     axis -180 -30 -90   XYZ
    dof rx ry rz
    limits (-60.0 90.0)
           (-90.0 90.0)
           (-90.0 90.0)
  end
  begin
     id 19
     name lradius
     direction 1 -4.48961e-011 -9.76021e-027   
     length 3.27727   
     axis -180 -30 -90   XYZ
    dof rx
    limits (-10.0 170.0)
  end
  begin
     id 20
     name lwrist
     direction 1 -4.49103e-011 -2.23668e-026   
     length 1.63864   
     axis 1.44924e-014 90 90   XYZ
    dof ry
    limits (-180.0 0.0)
 end
  begin
     id 21 
     name lhand
     direction 1 3.0697e-005 0.000161777   
     length 0.54443   
     axis 2.85318e-014 90 90   XYZ
    dof rx rz
    limits (-90.0 90.0)
           (-45.0 45.0)
  end
  begin
     id 22 
     name lfingers
     direction 1 -4.49027e-011 -8.9447e-026   
     length 0.438912   
     axis 5.70628e-014 90 90   XYZ
    dof rx
    limits (0.0 90.0)
  end
  begin
     id 23
     name lthumb
     direction 0.707058 2.6516e-005 0.707156   
     length 0.630274   
     axis -90 45 -3.53137e-014   XYZ
    dof rx rz
    limits (-45.0 45.0)
           (-45.0 45.0)
  end
  begin
     id 24 
     name rclavicle
     direction -0.95274 0.284984 -0.105215   
     length 3.43401  
     axis 0 0 0   XYZ 
    dof ry rz
    limits (-10.0 20.0)
           (-20.0 0.0)
  end
  begin
     id 25 
     name rhumerus
     direction -0.999999 -0.000575019 -0.00106829  
     length 5.52077   
     axis -180 30 90   XYZ
    dof rx ry rz
    limits (-90.0 60.0)
           (-90.0 90.0)
           (-90.0 90.0)
  end
  begin
     id 26 
     name rradius
     direction -1 -4.4879e-011 -6.35415e-027   
     length 3.32364   
     axis -180 30 90   XYZ
    dof rx
    limits (-10.0 170.0)
  end
  begin
     id 27 
     name rwrist
     direction -1 -4.49048e-011 -9.98542e-027   
     length 1.66182   
     axis 6.32482e-015 -90 -90   XYZ
    dof ry
    limits (-180.0 0.0)
  end
  begin
     id 28
     name rhand
     direction -1 -4.48978e-011 -1.99771e-026   
     length 0.732235   
     axis 1.27479e-014 -90 -90   XYZ
    dof rx rz
    limits (-90.0 90.0)
           (-45.0 45.0)
  end
  begin
     id 29
     name rfingers
     direction -1 -4.49144e-011 -3.99245e-026   
     length 0.590347   
     axis 2.5496e-014 -90 -90   XYZ
    dof rx
    limits (0.0 90.0)
  end
  begin
     id 30
     name rthumb
     direction -0.707107 -6.35121e-011 0.707107   
     length 0.847624   
     axis -90 -45 -2.82974e-014   XYZ
    dof rx rz
    limits (-45.0 45.0)
           (-45.0 45.0)
  end
:hierarchy
  begin
    root lhipjoint rhipjoint lowerback
    lhipjoint lfemur
    lfemur ltibia
    ltibia lfoot
    lfoot ltoes
    rhipjoint rfemur
    rfemur rtibia
    rtibia rfoot
    rfoot rtoes
    lowerback upperback
    upperback thorax
    thorax lowerneck lclavicle rclavicle
    lowerneck upperneck
    upperneck head
    lclavicle lhumerus
    lhumerus lradius
    lradius lwrist
    lwrist lhand lthumb
    lhand lfingers
    rclavicle rhumerus
    rhumerus rradius
    rradius rwrist
    rwrist rhand rthumb
    rhand rfingers
  end

#!OML:ASF G:\Work\Work\Patient Classification 1\Elijah\terrain1\Elijah.ASF
:FULLY-SPECIFIED
:DEGREES
1624
root 6.01662 20.47 19.1045 361.347 52.1217 0.163419
lowerback 2.7126 2.82645 -0.990735
upperback 0.0626386 3.72335 -1.25494
thorax -1.43329 1.86468 -0.876748
lowerneck -2.41948 18.1318 17.2242
upperneck 23.7122 33.1742 -23.8188
head 16.4816 14.9663 -5.80917
rclavicle 1.80646e-014 -3.57812e-015
rhumerus -41.9545 -1.41075 -82.5175
rradius 33.2054
rwrist -1.38607
rhand -15.0291 22.7973
rfingers 7.12502
rthumb 11.1367 -6.8872
lclavicle 1.80646e-014 -3.57812e-015
lhumerus -43.4972 -0.731002 86.2803
lradius 58.6989
lwrist 3.30133
lhand -13.6288 26.1783
lfingers 7.12502
lthumb 12.487 55.7853
rfemur -30.8764 -8.026 20.5743
rtibia 94.974
rfoot 5.28829 4.90775
rtoes -14.503
lfemur -14.3137 -7.49769 -30.325
ltibia 39.7438
lfoot -11.3956 -14.5673
ltoes 25.9036
1625
root 6.06579 20.4915 19.1427 361.691 53.1446 0.607805
lowerback 2.3707 2.60193 -1.09963
upperback 0.341215 3.43321 -1.18991
thorax -0.968756 1.72015 -0.711953
lowerneck -2.60177 18.2417 17.2257
upperneck 23.3221 33.3806 -24.259
head 16.5264 15.0273 -5.87839
rclavicle -8.69683e-015 8.74653e-015
rhumerus -41.3146 -1.2864 -82.2314
rradius 33.0497
rwrist -2.0294
rhand -14.5816 22.4304
rfingers 7.12502
rthumb 11.5683 -7.23035
lclavicle -8.69683e-015 8.74653e-015
lhumerus -42.6195 -0.0479273 86.2805
lradius 58.6606
lwrist 2.41133
lhand -14.4622 26.5323
lfingers 7.12502
lthumb 11.6834 56.1866
rfemur -31.6213 -8.17505 20.2179
rtibia 95.429
rfoot 3.44628 3.99196
rtoes -15.0418
lfemur -14.3296 -7.5377 -30.696
ltibia 39.9067
lfoot -11.8355 -14.4564
ltoes 20.1456
1626
root 6.0898 20.498 19.1883 362.389 54.4157 0.837872
lowerback 1.99097 2.37258 -1.2039
upperback 0.171053 3.12955 -1.15529
thorax -0.939188 1.56874 -0.59598
lowerneck -2.69202 18.2702 17.0814
upperneck 23.3379 33.3867 -24.1223
head 16.4781 15.0209 -5.79326
rclavicle -6.94504e-014 -6.36111e-015
rhumerus -41.1818 -1.41482 -81.9679
rradius 32.9214
rwrist -2.20773
rhand -14.1681 22.2694
rfingers 7.12502
rthumb 11.967 -7.36849
lclavicle -6.94504e-014 -6.36111e-015
lhumerus -42.2799 0.0426055 86.26
lradius 58.8695
lwrist 1.80218
lhand -11.7543 24.0354
lfingers 7.12502
lthumb 14.2937 53.5234
rfemur -33.3402 -8.48992 20.2035
rtibia 96.0867
rfoot 2.16722 2.83429
rtoes -16.2434
lfemur -14.8903 -8.37929 -30.7516
ltibia 40.0994
lfoot -11.4627 -14.5074
ltoes 19.3495
1627
root 6.12862 20.5032 19.231 362.32 55.0531 0.919947
lowerback 2.11235 2.30951 -1.19031
upperback 0.182957 3.04431 -0.997127
thorax -1.0029 1.52611 -0.444754
lowerneck -2.51141 18.3589 17.2271
upperneck 23.3047 33.653 -24.2979
head 16.5912 15.1606 -5.81044
rclavicle -9.81375e-014 4.17448e-015
rhumerus -41.1049 -1.19055 -81.7225
rradius 32.7523
rwrist -2.28706
rhand -14.3856 22.427
rfingers 7.12502
rthumb 11.7573 -7.22298
lclavicle -9.81375e-014 4.17448e-015
lhumerus -42.2166 0.0219325 86.4901
lradius 59.2085
lwrist 1.4164
lhand -13.0736 25.4786
lfingers 7.12502
lthumb 13.0222 55.0522
rfemur -34.2617 -7.92157 20.1682
rtibia 96.5682
rfoot 1.13851 1.5154
rtoes -17.1788
lfemur -14.4946 -8.71673 -30.7567
ltibia 40.2435
lfoot -11.1552 -14.8662
ltoes 20.4724
1628
root 6.16471 20.5099 19.2671 362.371 55.8074 1.15979
lowerback 2.16972 2.23717 -1.34008
upperback 0.287793 2.94615 -0.805236
thorax -0.945083 1.47728 -0.162099
lowerneck -2.15292 18.3249 17.853
upperneck 22.9739 33.8533 -25.0473
head 16.8 15.3155 -6.14373
rclavicle -1.55176e-014 9.54166e-015
rhumerus -40.8973 -0.808338 -81.4081
rradius 32.6636
rwrist -2.57248
rhand -14.7348 22.4275
rfingers 7.12502
rthumb 11.4205 -7.2415
lclavicle -1.55176e-014 9.54166e-015
lhumerus -42.2927 -0.659304 87.065
lradius 59.8467
lwrist 1.49432
lhand -13.694 25.768
lfingers 7.12502
lthumb 12.4242 55.3787
rfemur -35.3252 -7.38043 19.8595
rtibia 97.1021
rfoot 0.224276 0.319377
rtoes -14.6819
lfemur -14.0261 -9.07645 -30.8428
ltibia 40.2368
lfoot -10.9964 -15.336
ltoes 19.8236
